<svg id="Capa_1" enable-background="new 0 0 512 512" height="512" viewBox="0 0 512 512" width="512" xmlns="http://www.w3.org/2000/svg"><path d="m437 0c-16.871 0-32.456 5.603-45 15.041v-15.041h-272v15.041c-12.544-9.438-28.129-15.041-45-15.041-41.355 0-75 33.645-75 75 0 36.165 26.21 62.666 49.335 86.048 20.913 21.145 40.665 41.117 40.665 64.952 0 8.271-6.729 15-15 15s-15-6.729-15-15v-15h-30v15c0 24.813 20.187 45 45 45s45-20.187 45-45c0-36.165-26.21-62.666-49.335-86.048-20.913-21.145-40.665-41.117-40.665-64.952 0-24.813 20.187-45 45-45s45 20.187 45 45v61c0 30.512 10.155 59.365 29.367 83.438 16.021 20.075 37.601 35.371 61.633 43.872v69.197c-29.341 5.981-52.492 29.153-58.475 58.493h-31.525v121h270v-121h-31.525c-5.982-29.341-29.134-52.513-58.475-58.493v-69.197c24.032-8.5 45.612-23.796 61.633-43.872 19.212-24.073 29.367-52.926 29.367-83.438 0-19.152 0-41.438 0-61 0-24.813 20.187-45 45-45s45 20.187 45 45c0 23.835-19.752 43.807-40.665 64.952-23.125 23.382-49.335 49.883-49.335 86.048 0 24.813 20.187 45 45 45s45-20.187 45-45v-15h-30v15c0 8.271-6.729 15-15 15s-15-6.729-15-15c0-23.835 19.752-43.807 40.665-64.952 23.125-23.382 49.335-49.883 49.335-86.048 0-41.355-33.645-75-75-75zm-76 482h-210v-61h210zm1-346c0 47.791-32.79 89.609-79.739 101.692l-11.261 2.899v120.409h15c19.555 0 36.228 12.541 42.42 30h-144.84c6.192-17.459 22.865-30 42.42-30h15v-120.409l-11.261-2.898c-46.949-12.084-79.739-53.901-79.739-101.693 0-23.353 0-82.042 0-106h212z"/></svg>